<svg xmlns="http://www.w3.org/2000/svg" xmlns:xlink="http://www.w3.org/1999/xlink" contentStyleType="text/css" data-diagram-type="SEQUENCE" height="900px" preserveAspectRatio="none" style="width:1045px;height:900px;background:#FFFFFF;" version="1.1" viewBox="0 0 1045 900" width="1045px" zoomAndPan="magnify"><?plantuml 1.2026.4?><defs/><g><g class="title" data-source-line="1"><text fill="#000000" font-family="sans-serif" font-size="14" font-weight="700" lengthAdjust="spacing" textLength="189.8271" x="424.2473" y="31.0439">Playlist Download Sequence</text></g><rect fill="none" height="51.5317" style="stroke:#000000;stroke-width:1.5;" width="416.0176" x="397.7368" y="458.7842"/><rect fill="none" height="146.7949" style="stroke:#000000;stroke-width:1.5;" width="395.5874" x="523.084" y="556.0703"/><g class="participant-lifeline" data-entity-uid="part1" data-qualified-name="User" data-source-line="4" id="part1-lifeline"><g><title>User</title><rect fill="#000000" fill-opacity="0.00000" height="690.8882" width="8" x="18.7793" y="124.2402"/><line style="stroke:#181818;stroke-width:0.5;stroke-dasharray:5,5;" x1="22" x2="22" y1="124.2402" y2="815.1284"/></g></g><g class="participant-lifeline" data-entity-uid="part2" data-qualified-name="UI" data-source-line="5" id="part2-lifeline"><g><title>React UI</title><rect fill="#000000" fill-opacity="0.00000" height="690.8882" width="8" x="205.3745" y="124.2402"/><line style="stroke:#181818;stroke-width:0.5;stroke-dasharray:5,5;" x1="209.1436" x2="209.1436" y1="124.2402" y2="815.1284"/></g></g><g class="participant-lifeline" data-entity-uid="part3" data-qualified-name="API" data-source-line="6" id="part3-lifeline"><g><title>FastAPI routes</title><rect fill="#000000" fill-opacity="0.00000" height="690.8882" width="8" x="457.0332" y="124.2402"/><line style="stroke:#181818;stroke-width:0.5;stroke-dasharray:5,5;" x1="460.7368" x2="460.7368" y1="124.2402" y2="815.1284"/></g></g><g class="participant-lifeline" data-entity-uid="part4" data-qualified-name="Manager" data-source-line="7" id="part4-lifeline"><g><title>JobManager</title><rect fill="#000000" fill-opacity="0.00000" height="690.8882" width="8" x="574.9976" y="124.2402"/><line style="stroke:#181818;stroke-width:0.5;stroke-dasharray:5,5;" x1="578.084" x2="578.084" y1="124.2402" y2="815.1284"/></g></g><g class="participant-lifeline" data-entity-uid="part5" data-qualified-name="DB" data-source-line="8" id="part5-lifeline"><g><title>SQLite</title><rect fill="#000000" fill-opacity="0.00000" height="690.8882" width="8" x="775.3545" y="124.2402"/><line style="stroke:#181818;stroke-width:0.5;stroke-dasharray:5,5;" x1="778.9546" x2="778.9546" y1="124.2402" y2="815.1284"/></g></g><g class="participant-lifeline" data-entity-uid="part6" data-qualified-name="Service" data-source-line="9" id="part6-lifeline"><g><title>YtDlpService</title><rect fill="#000000" fill-opacity="0.00000" height="690.8882" width="8" x="857.2129" y="124.2402"/><line style="stroke:#181818;stroke-width:0.5;stroke-dasharray:5,5;" x1="860.7544" x2="860.7544" y1="124.2402" y2="815.1284"/></g></g><g class="participant-lifeline" data-entity-uid="part7" data-qualified-name="YTDLP" data-source-line="10" id="part7-lifeline"><g><title>yt-dlp</title><rect fill="#000000" fill-opacity="0.00000" height="690.8882" width="8" x="1006.2046" y="124.2402"/><line style="stroke:#181818;stroke-width:0.5;stroke-dasharray:5,5;" x1="1010.0874" x2="1010.0874" y1="124.2402" y2="815.1284"/></g></g><g class="participant participant-head" data-entity-uid="part1" data-qualified-name="User" data-source-line="4" id="part1-head"><text fill="#000000" font-family="sans-serif" font-size="14" lengthAdjust="spacing" textLength="29.5586" x="5" y="121.1641">User</text><ellipse cx="22.7793" cy="53.6201" fill="#E2E2F0" rx="8" ry="8" style="stroke:#181818;stroke-width:0.5;"/><path d="M22.7793,61.6201 L22.7793,88.6201 M9.7793,69.6201 L35.7793,69.6201 M22.7793,88.6201 L9.7793,103.6201 M22.7793,88.6201 L35.7793,103.6201" fill="none" style="stroke:#181818;stroke-width:0.5;"/></g><g class="participant participant-tail" data-entity-uid="part1" data-qualified-name="User" data-source-line="4" id="part1-tail"><text fill="#000000" font-family="sans-serif" font-size="14" lengthAdjust="spacing" textLength="29.5586" x="5" y="830.1724">User</text><ellipse cx="22.7793" cy="841.7485" fill="#E2E2F0" rx="8" ry="8" style="stroke:#181818;stroke-width:0.5;"/><path d="M22.7793,849.7485 L22.7793,876.7485 M9.7793,857.7485 L35.7793,857.7485 M22.7793,876.7485 L9.7793,891.7485 M22.7793,876.7485 L35.7793,891.7485" fill="none" style="stroke:#181818;stroke-width:0.5;"/></g><g class="participant participant-head" data-entity-uid="part2" data-qualified-name="UI" data-source-line="5" id="part2-head"><rect fill="#E2E2F0" height="33.1201" rx="2.5" ry="2.5" style="stroke:#181818;stroke-width:0.5;" width="68.4619" x="175.1436" y="90.1201"/><text fill="#000000" font-family="sans-serif" font-size="14" lengthAdjust="spacing" textLength="54.4619" x="182.1436" y="113.1641">React UI</text></g><g class="participant participant-tail" data-entity-uid="part2" data-qualified-name="UI" data-source-line="5" id="part2-tail"><rect fill="#E2E2F0" height="33.1201" rx="2.5" ry="2.5" style="stroke:#181818;stroke-width:0.5;" width="68.4619" x="175.1436" y="814.1284"/><text fill="#000000" font-family="sans-serif" font-size="14" lengthAdjust="spacing" textLength="54.4619" x="182.1436" y="837.1724">React UI</text></g><g class="participant participant-head" data-entity-uid="part3" data-qualified-name="API" data-source-line="6" id="part3-head"><rect fill="#E2E2F0" height="33.1201" rx="2.5" ry="2.5" style="stroke:#181818;stroke-width:0.5;" width="106.5928" x="407.7368" y="90.1201"/><text fill="#000000" font-family="sans-serif" font-size="14" lengthAdjust="spacing" textLength="92.5928" x="414.7368" y="113.1641">FastAPI routes</text></g><g class="participant participant-tail" data-entity-uid="part3" data-qualified-name="API" data-source-line="6" id="part3-tail"><rect fill="#E2E2F0" height="33.1201" rx="2.5" ry="2.5" style="stroke:#181818;stroke-width:0.5;" width="106.5928" x="407.7368" y="814.1284"/><text fill="#000000" font-family="sans-serif" font-size="14" lengthAdjust="spacing" textLength="92.5928" x="414.7368" y="837.1724">FastAPI routes</text></g><g class="participant participant-head" data-entity-uid="part4" data-qualified-name="Manager" data-source-line="7" id="part4-head"><rect fill="#E2E2F0" height="33.1201" rx="2.5" ry="2.5" style="stroke:#181818;stroke-width:0.5;" width="91.8271" x="533.084" y="90.1201"/><text fill="#000000" font-family="sans-serif" font-size="14" lengthAdjust="spacing" textLength="77.8271" x="540.084" y="113.1641">JobManager</text></g><g class="participant participant-tail" data-entity-uid="part4" data-qualified-name="Manager" data-source-line="7" id="part4-tail"><rect fill="#E2E2F0" height="33.1201" rx="2.5" ry="2.5" style="stroke:#181818;stroke-width:0.5;" width="91.8271" x="533.084" y="814.1284"/><text fill="#000000" font-family="sans-serif" font-size="14" lengthAdjust="spacing" textLength="77.8271" x="540.084" y="837.1724">JobManager</text></g><g class="participant participant-head" data-entity-uid="part5" data-qualified-name="DB" data-source-line="8" id="part5-head"><text fill="#000000" font-family="sans-serif" font-size="14" lengthAdjust="spacing" textLength="42.7998" x="754.9546" y="121.1641">SQLite</text><path d="M761.3545,69.1201 C761.3545,59.1201 779.3545,59.1201 779.3545,59.1201 C779.3545,59.1201 797.3545,59.1201 797.3545,69.1201 L797.3545,95.1201 C797.3545,105.1201 779.3545,105.1201 779.3545,105.1201 C779.3545,105.1201 761.3545,105.1201 761.3545,95.1201 L761.3545,69.1201" fill="#E2E2F0" style="stroke:#181818;stroke-width:0.5;"/><path d="M761.3545,69.1201 C761.3545,79.1201 779.3545,79.1201 779.3545,79.1201 C779.3545,79.1201 797.3545,79.1201 797.3545,69.1201" fill="none" style="stroke:#181818;stroke-width:0.5;"/></g><g class="participant participant-tail" data-entity-uid="part5" data-qualified-name="DB" data-source-line="8" id="part5-tail"><text fill="#000000" font-family="sans-serif" font-size="14" lengthAdjust="spacing" textLength="42.7998" x="754.9546" y="830.1724">SQLite</text><path d="M761.3545,843.2485 C761.3545,833.2485 779.3545,833.2485 779.3545,833.2485 C779.3545,833.2485 797.3545,833.2485 797.3545,843.2485 L797.3545,869.2485 C797.3545,879.2485 779.3545,879.2485 779.3545,879.2485 C779.3545,879.2485 761.3545,879.2485 761.3545,869.2485 L761.3545,843.2485" fill="#E2E2F0" style="stroke:#181818;stroke-width:0.5;"/><path d="M761.3545,843.2485 C761.3545,853.2485 779.3545,853.2485 779.3545,853.2485 C779.3545,853.2485 797.3545,853.2485 797.3545,843.2485" fill="none" style="stroke:#181818;stroke-width:0.5;"/></g><g class="participant participant-head" data-entity-uid="part6" data-qualified-name="Service" data-source-line="9" id="part6-head"><rect fill="#E2E2F0" height="33.1201" rx="2.5" ry="2.5" style="stroke:#181818;stroke-width:0.5;" width="94.917" x="813.7544" y="90.1201"/><text fill="#000000" font-family="sans-serif" font-size="14" lengthAdjust="spacing" textLength="80.917" x="820.7544" y="113.1641">YtDlpService</text></g><g class="participant participant-tail" data-entity-uid="part6" data-qualified-name="Service" data-source-line="9" id="part6-tail"><rect fill="#E2E2F0" height="33.1201" rx="2.5" ry="2.5" style="stroke:#181818;stroke-width:0.5;" width="94.917" x="813.7544" y="814.1284"/><text fill="#000000" font-family="sans-serif" font-size="14" lengthAdjust="spacing" textLength="80.917" x="820.7544" y="837.1724">YtDlpService</text></g><g class="participant participant-head" data-entity-uid="part7" data-qualified-name="YTDLP" data-source-line="10" id="part7-head"><rect fill="#E2E2F0" height="33.1201" rx="2.5" ry="2.5" style="stroke:#181818;stroke-width:0.5;" width="48.2344" x="986.0874" y="90.1201"/><text fill="#000000" font-family="sans-serif" font-size="14" lengthAdjust="spacing" textLength="34.2344" x="993.0874" y="113.1641">yt-dlp</text></g><g class="participant participant-tail" data-entity-uid="part7" data-qualified-name="YTDLP" data-source-line="10" id="part7-tail"><rect fill="#E2E2F0" height="33.1201" rx="2.5" ry="2.5" style="stroke:#181818;stroke-width:0.5;" width="48.2344" x="986.0874" y="814.1284"/><text fill="#000000" font-family="sans-serif" font-size="14" lengthAdjust="spacing" textLength="34.2344" x="993.0874" y="837.1724">yt-dlp</text></g><g class="message" data-entity-1="part1" data-entity-2="part2" data-source-line="12" id="msg1"><polygon fill="#181818" points="197.3745,153.9946,207.3745,157.9946,197.3745,161.9946,201.3745,157.9946" style="stroke:#181818;stroke-width:1;stroke-linejoin:miter;stroke-miterlimit:10;"/><line style="stroke:#181818;stroke-width:1;" x1="22.7793" x2="203.3745" y1="157.9946" y2="157.9946"/><text fill="#000000" font-family="sans-serif" font-size="13" lengthAdjust="spacing" textLength="111.2554" x="29.7793" y="153.1382">submit playlist URL</text></g><g class="message" data-entity-1="part2" data-entity-2="part3" data-source-line="13" id="msg2"><polygon fill="#181818" points="449.0332,185.749,459.0332,189.749,449.0332,193.749,453.0332,189.749" style="stroke:#181818;stroke-width:1;stroke-linejoin:miter;stroke-miterlimit:10;"/><line style="stroke:#181818;stroke-width:1;" x1="209.3745" x2="455.0332" y1="189.749" y2="189.749"/><text fill="#000000" font-family="sans-serif" font-size="13" lengthAdjust="spacing" textLength="108.3862" x="216.3745" y="184.8926">POST /api/analyze</text></g><g class="message" data-entity-1="part3" data-entity-2="part6" data-source-line="14" id="msg3"><polygon fill="#181818" points="849.2129,217.5034,859.2129,221.5034,849.2129,225.5034,853.2129,221.5034" style="stroke:#181818;stroke-width:1;stroke-linejoin:miter;stroke-miterlimit:10;"/><line style="stroke:#181818;stroke-width:1;" x1="461.0332" x2="855.2129" y1="221.5034" y2="221.5034"/><text fill="#000000" font-family="sans-serif" font-size="13" lengthAdjust="spacing" textLength="237.3643" x="468.0332" y="216.647">extract_metadata(extract_flat=in_playlist)</text></g><g class="message" data-entity-1="part6" data-entity-2="part7" data-source-line="15" id="msg4"><polygon fill="#181818" points="998.2046,249.2578,1008.2046,253.2578,998.2046,257.2578,1002.2046,253.2578" style="stroke:#181818;stroke-width:1;stroke-linejoin:miter;stroke-miterlimit:10;"/><line style="stroke:#181818;stroke-width:1;" x1="861.2129" x2="1004.2046" y1="253.2578" y2="253.2578"/><text fill="#000000" font-family="sans-serif" font-size="13" lengthAdjust="spacing" textLength="124.9917" x="868.2129" y="248.4014">extract playlist entries</text></g><g class="message" data-entity-1="part7" data-entity-2="part6" data-source-line="16" id="msg5"><polygon fill="#181818" points="872.2129,281.0122,862.2129,285.0122,872.2129,289.0122,868.2129,285.0122" style="stroke:#181818;stroke-width:1;stroke-linejoin:miter;stroke-miterlimit:10;"/><line style="stroke:#181818;stroke-width:1;stroke-dasharray:2,2;" x1="866.2129" x2="1009.2046" y1="285.0122" y2="285.0122"/><text fill="#000000" font-family="sans-serif" font-size="13" lengthAdjust="spacing" textLength="39.019" x="878.2129" y="280.1558">entries</text></g><g class="message" data-entity-1="part6" data-entity-2="part3" data-source-line="17" id="msg6"><polygon fill="#181818" points="472.0332,312.7666,462.0332,316.7666,472.0332,320.7666,468.0332,316.7666" style="stroke:#181818;stroke-width:1;stroke-linejoin:miter;stroke-miterlimit:10;"/><line style="stroke:#181818;stroke-width:1;stroke-dasharray:2,2;" x1="466.0332" x2="860.2129" y1="316.7666" y2="316.7666"/><text fill="#000000" font-family="sans-serif" font-size="13" lengthAdjust="spacing" textLength="152.4644" x="478.0332" y="311.9102">AnalyzeResponse(entries)</text></g><g class="message" data-entity-1="part3" data-entity-2="part2" data-source-line="18" id="msg7"><polygon fill="#181818" points="220.3745,344.521,210.3745,348.521,220.3745,352.521,216.3745,348.521" style="stroke:#181818;stroke-width:1;stroke-linejoin:miter;stroke-miterlimit:10;"/><line style="stroke:#181818;stroke-width:1;stroke-dasharray:2,2;" x1="214.3745" x2="460.0332" y1="348.521" y2="348.521"/><text fill="#000000" font-family="sans-serif" font-size="13" lengthAdjust="spacing" textLength="71.5381" x="226.3745" y="343.6646">playlist table</text></g><g class="message" data-entity-1="part1" data-entity-2="part2" data-source-line="20" id="msg8"><polygon fill="#181818" points="197.3745,376.2754,207.3745,380.2754,197.3745,384.2754,201.3745,380.2754" style="stroke:#181818;stroke-width:1;stroke-linejoin:miter;stroke-miterlimit:10;"/><line style="stroke:#181818;stroke-width:1;" x1="22.7793" x2="203.3745" y1="380.2754" y2="380.2754"/><text fill="#000000" font-family="sans-serif" font-size="13" lengthAdjust="spacing" textLength="162.5952" x="29.7793" y="375.4189">select entries and create job</text></g><g class="message" data-entity-1="part2" data-entity-2="part3" data-source-line="21" id="msg9"><polygon fill="#181818" points="449.0332,408.0298,459.0332,412.0298,449.0332,416.0298,453.0332,412.0298" style="stroke:#181818;stroke-width:1;stroke-linejoin:miter;stroke-miterlimit:10;"/><line style="stroke:#181818;stroke-width:1;" x1="209.3745" x2="455.0332" y1="412.0298" y2="412.0298"/><text fill="#000000" font-family="sans-serif" font-size="13" lengthAdjust="spacing" textLength="219.6416" x="216.3745" y="407.1733">POST /api/jobs(options.playlist_items)</text></g><g class="message" data-entity-1="part3" data-entity-2="part5" data-source-line="22" id="msg10"><polygon fill="#181818" points="767.3545,439.7842,777.3545,443.7842,767.3545,447.7842,771.3545,443.7842" style="stroke:#181818;stroke-width:1;stroke-linejoin:miter;stroke-miterlimit:10;"/><line style="stroke:#181818;stroke-width:1;" x1="461.0332" x2="773.3545" y1="443.7842" y2="443.7842"/><text fill="#000000" font-family="sans-serif" font-size="13" lengthAdjust="spacing" textLength="81.6626" x="468.0332" y="438.9277">insert one Job</text></g><path d="M397.7368,458.7842 L470.1714,458.7842 L470.1714,468.5386 L460.1714,478.5386 L397.7368,478.5386 L397.7368,458.7842" fill="#EEEEEE" style="stroke:#000000;stroke-width:1.5;"/><rect fill="none" height="51.5317" style="stroke:#000000;stroke-width:1.5;" width="416.0176" x="397.7368" y="458.7842"/><text fill="#000000" font-family="sans-serif" font-size="13" font-weight="700" lengthAdjust="spacing" textLength="27.4346" x="412.7368" y="474.6821">loop</text><text fill="#000000" font-family="sans-serif" font-size="11" font-weight="700" lengthAdjust="spacing" textLength="90.4814" x="485.1714" y="473.3901">[selected entries]</text><g class="message" data-entity-1="part3" data-entity-2="part5" data-source-line="24" id="msg11"><polygon fill="#181818" points="767.3545,498.3159,777.3545,502.3159,767.3545,506.3159,771.3545,502.3159" style="stroke:#181818;stroke-width:1;stroke-linejoin:miter;stroke-miterlimit:10;"/><line style="stroke:#181818;stroke-width:1;" x1="461.0332" x2="773.3545" y1="502.3159" y2="502.3159"/><text fill="#000000" font-family="sans-serif" font-size="13" lengthAdjust="spacing" textLength="216.7534" x="468.0332" y="497.4595">insert JobItem(index, title, source_url)</text></g><g class="message" data-entity-1="part3" data-entity-2="part4" data-source-line="26" id="msg12"><polygon fill="#181818" points="566.9976,537.0703,576.9976,541.0703,566.9976,545.0703,570.9976,541.0703" style="stroke:#181818;stroke-width:1;stroke-linejoin:miter;stroke-miterlimit:10;"/><line style="stroke:#181818;stroke-width:1;" x1="461.0332" x2="572.9976" y1="541.0703" y2="541.0703"/><text fill="#000000" font-family="sans-serif" font-size="13" lengthAdjust="spacing" textLength="93.9644" x="468.0332" y="536.2139">enqueue(job_id)</text></g><path d="M523.084,556.0703 L595.5186,556.0703 L595.5186,565.8247 L585.5186,575.8247 L523.084,575.8247 L523.084,556.0703" fill="#EEEEEE" style="stroke:#000000;stroke-width:1.5;"/><rect fill="none" height="146.7949" style="stroke:#000000;stroke-width:1.5;" width="395.5874" x="523.084" y="556.0703"/><text fill="#000000" font-family="sans-serif" font-size="13" font-weight="700" lengthAdjust="spacing" textLength="27.4346" x="538.084" y="571.9683">loop</text><text fill="#000000" font-family="sans-serif" font-size="11" font-weight="700" lengthAdjust="spacing" textLength="189.4761" x="610.5186" y="570.6763">[queued JobItems ordered by index]</text><g class="message" data-entity-1="part4" data-entity-2="part6" data-source-line="29" id="msg13"><polygon fill="#181818" points="849.2129,595.6021,859.2129,599.6021,849.2129,603.6021,853.2129,599.6021" style="stroke:#181818;stroke-width:1;stroke-linejoin:miter;stroke-miterlimit:10;"/><line style="stroke:#181818;stroke-width:1;" x1="578.9976" x2="855.2129" y1="599.6021" y2="599.6021"/><text fill="#000000" font-family="sans-serif" font-size="13" lengthAdjust="spacing" textLength="140.9116" x="585.9976" y="594.7456">prepare_download(item)</text></g><g class="message" data-entity-1="part4" data-entity-2="part6" data-source-line="30" id="msg14"><polygon fill="#181818" points="849.2129,627.3564,859.2129,631.3564,849.2129,635.3564,853.2129,631.3564" style="stroke:#181818;stroke-width:1;stroke-linejoin:miter;stroke-miterlimit:10;"/><line style="stroke:#181818;stroke-width:1;" x1="578.9976" x2="855.2129" y1="631.3564" y2="631.3564"/><text fill="#000000" font-family="sans-serif" font-size="13" lengthAdjust="spacing" textLength="88.8735" x="585.9976" y="626.5">download(item)</text></g><g class="message" data-entity-1="part6" data-entity-2="part4" data-source-line="31" id="msg15"><polygon fill="#181818" points="589.9976,659.1108,579.9976,663.1108,589.9976,667.1108,585.9976,663.1108" style="stroke:#181818;stroke-width:1;stroke-linejoin:miter;stroke-miterlimit:10;"/><line style="stroke:#181818;stroke-width:1;stroke-dasharray:2,2;" x1="583.9976" x2="860.2129" y1="663.1108" y2="663.1108"/><text fill="#000000" font-family="sans-serif" font-size="13" lengthAdjust="spacing" textLength="130.0571" x="595.9976" y="658.2544">progress/finished/error</text></g><g class="message" data-entity-1="part4" data-entity-2="part5" data-source-line="32" id="msg16"><polygon fill="#181818" points="767.3545,690.8652,777.3545,694.8652,767.3545,698.8652,771.3545,694.8652" style="stroke:#181818;stroke-width:1;stroke-linejoin:miter;stroke-miterlimit:10;"/><line style="stroke:#181818;stroke-width:1;" x1="578.9976" x2="773.3545" y1="694.8652" y2="694.8652"/><text fill="#000000" font-family="sans-serif" font-size="13" lengthAdjust="spacing" textLength="176.3569" x="585.9976" y="690.0088">update item and aggregate job</text></g><g class="message" data-entity-1="part4" data-entity-2="part5" data-source-line="35" id="msg17"><polygon fill="#181818" points="767.3545,729.6196,777.3545,733.6196,767.3545,737.6196,771.3545,733.6196" style="stroke:#181818;stroke-width:1;stroke-linejoin:miter;stroke-miterlimit:10;"/><line style="stroke:#181818;stroke-width:1;" x1="578.9976" x2="773.3545" y1="733.6196" y2="733.6196"/><text fill="#000000" font-family="sans-serif" font-size="13" lengthAdjust="spacing" textLength="51.3081" x="585.9976" y="728.7632">finish job</text></g><g class="message" data-entity-1="part2" data-entity-2="part3" data-source-line="36" id="msg18"><polygon fill="#181818" points="449.0332,761.374,459.0332,765.374,449.0332,769.374,453.0332,765.374" style="stroke:#181818;stroke-width:1;stroke-linejoin:miter;stroke-miterlimit:10;"/><line style="stroke:#181818;stroke-width:1;" x1="209.3745" x2="455.0332" y1="765.374" y2="765.374"/><text fill="#000000" font-family="sans-serif" font-size="13" lengthAdjust="spacing" textLength="78.7554" x="216.3745" y="760.5176">GET /api/jobs</text></g><g class="message" data-entity-1="part3" data-entity-2="part2" data-source-line="37" id="msg19"><polygon fill="#181818" points="220.3745,793.1284,210.3745,797.1284,220.3745,801.1284,216.3745,797.1284" style="stroke:#181818;stroke-width:1;stroke-linejoin:miter;stroke-miterlimit:10;"/><line style="stroke:#181818;stroke-width:1;stroke-dasharray:2,2;" x1="214.3745" x2="460.0332" y1="797.1284" y2="797.1284"/><text fill="#000000" font-family="sans-serif" font-size="13" lengthAdjust="spacing" textLength="227.6587" x="226.3745" y="792.272">aggregate status and expandable items</text></g><?plantuml-src TLF1Rjim3BthAuYS7A1PxWLMe4Ew8KM6PKbpwCbWB2PLfqYQHA_9ldwqR2Trkvviwps-zqJIRDWIB2sUh4aCC__Yh4SDQ_fTawj8fL_61OnuWFI4shyOjuSTsaHAOSK-mYPHLC9WKvc0Zc6q8a5WCny19daCmQ-O-7OvX-XhffGfyZdatFljTtIufvZnxbrfPDnY8XYjVouCKmPdNuQrZpopOKtnZwbQGlS-P9ruect8-EF3RB5Kgha6J6uaBrn3ghS7mn3wjcnM2oM0m4tqQrZ-M3_058EPIZHx-akgEHUuCnCA7JbA6ye3CJR1Y_vWPv4_6rVsucFL5qbz3dEflYGWnz5GKYrXChJgiBFEEUTjcsv5ANYNgEYOupPkVzkpYRJNqjjMaANgx0_eD5IHa0cU_VQ3fWYI2X_OYEcdNhsKYHrwwnkPcvGO2HKPl2EGcIlhVUWCIP-l1V2V4g7FHQymJjFn2hXPuoj8leuLbNMqOqLEzrxT0kLMoLhNL4Z2qkYnQYtpcUur4_YeASh1zWHPNoBq4eF6XqYoLLJgxgyfcYkEFsA_OxsUroLYY7uVAQNfpZYJdaXFAKOVXwgv5NNGpHmQkJmNt4lXlXzDSt_rjgJLV3UwRtUl9ZTSZejeOkIwtG0woc-acst9xkaV?></g></svg>